<?xml version="1.0" ?><svg id="icon" style="enable-background:new 0 0 512 512;" version="1.1" viewBox="0 0 512 512" xml:space="preserve" xmlns="http://www.w3.org/2000/svg" xmlns:xlink="http://www.w3.org/1999/xlink"><g><path d="M362.2311096,422.8291016c19.1996765,0,34.8197937-15.6200867,34.8197937-34.8152161   c0-19.2001953-15.6201172-34.8200989-34.8197937-34.8200989c-19.1953125,0-34.8155212,15.6199036-34.8155212,34.8200989   C327.4155884,407.2090149,343.0357971,422.8291016,362.2311096,422.8291016z M362.2311096,363.7900085   c13.3588867,0,24.2236023,10.8649902,24.2236023,24.223877c0,13.3538208-10.8647156,24.2190247-24.2236023,24.2190247   c-13.3545227,0-24.2192993-10.8652039-24.2192993-24.2190247   C338.0118103,374.6549988,348.8765869,363.7900085,362.2311096,363.7900085z"/><path d="M362.2311096,402.8940125c2.9281921,0,5.2977905-2.369812,5.2977905-5.2981262   c0-2.9283752-2.3695984-5.2979736-5.2977905-5.2979736c-2.3648071,0-4.2842102-1.9197083-4.2842102-4.2840271   c0-2.3644714,1.9194031-4.2838745,4.2842102-4.2838745c2.9281921,0,5.2977905-2.3699036,5.2977905-5.2981262   c0-2.9284973-2.3695984-5.2980957-5.2977905-5.2980957c-8.2061157,0-14.8804016,6.6743164-14.8804016,14.8800964   C347.350708,396.219696,354.0249939,402.8940125,362.2311096,402.8940125z"/><path d="M282.1651917,353.1937866c-19.1954041,0-34.8149872,15.6199036-34.8149872,34.8200989   c0,19.1951294,15.6195831,34.8152161,34.8149872,34.8152161c19.2001038,0,34.8203125-15.6200867,34.8203125-34.8152161   C316.9855042,368.8136902,301.3652954,353.1937866,282.1651917,353.1937866z M282.1651917,412.2329102   c-13.3540955,0-24.2187805-10.8652039-24.2187805-24.2190247c0-13.3588867,10.8646851-24.223877,24.2187805-24.223877   c13.3587952,0,24.2241211,10.8649902,24.2241211,24.223877   C306.3893127,401.3677063,295.5239868,412.2329102,282.1651917,412.2329102z"/><path d="M282.1651917,383.730011c2.9282227,0,5.2983093-2.3699036,5.2983093-5.2981262   c0-2.9284973-2.3700867-5.2980957-5.2983093-5.2980957c-8.2055969,0-14.8798828,6.6743164-14.8798828,14.8800964   c0,8.2058105,6.6742859,14.880127,14.8798828,14.880127c2.9282227,0,5.2983093-2.369812,5.2983093-5.2981262   c0-2.9283752-2.3700867-5.2979736-5.2983093-5.2979736c-2.3647766,0-4.2836914-1.9197083-4.2836914-4.2840271   C277.8815002,385.6494141,279.800415,383.730011,282.1651917,383.730011z"/><path d="M461.9674072,227.1994934H354.9707947c-42.530304-45.6669922-45.9790039-116.4824905-46.0101929-117.1982956   c-0.1192017-2.8405991-2.4526978-5.0810013-5.2929993-5.0810013h-71.5702972V79.9514008   c0-9.8664017-8.0298004-17.8964996-17.8960114-17.8964996c-9.191391,0-16.7001953,6.9938965-17.6972961,15.9238968   L45.7140007,290.2641907c-1.1485023,1.6140137-1.2984009,3.735321-0.3881989,5.4995117   c0.9105988,1.759491,2.7269974,2.8666992,4.7084999,2.8666992h146.2704926v34.5454102H50.0343018   c-2.9282036,0-5.2979012,2.3700867-5.2979012,5.2982788v11.5689087c0,55.0862122,44.8159981,99.9020996,99.9019012,99.9020996   h222.7299805c55.0810242,0,99.8970032-44.8158875,99.8970032-99.9020996v-69.8989868v-47.6464081   C467.2652893,229.5693054,464.8955994,227.1994934,461.9674072,227.1994934z M403.901001,237.7957001h20.5249023v37.0501862   H403.901001V237.7957001z M372.7803955,237.7957001h20.5244141v37.0501862h-20.5244141V237.7957001z M362.1842041,237.7957001   v37.0501862h-21.6474915v-37.0501862H362.1842041z M232.0973053,115.5164032h66.6294098   c0.4320984,4.9508972,1.4032898,13.2232971,3.3719788,23.3806h-29.5155945c-2.9287109,0-5.2977905,2.3701019-5.2977905,5.2980957   c0,2.9286957,2.3690796,5.2980957,5.2977905,5.2980957h31.8023071c2.1576843,9.0057983,5.1195984,18.9707031,9.0830078,29.2687988   h-21.7212219c-2.9286804,0-5.2978821,2.3693085-5.2978821,5.298111c0,2.9281921,2.3692017,5.2977905,5.2978821,5.2977905   h26.1509094c5.7992859,12.8798981,13.2861023,25.8870087,23.0307007,37.8415985h-5.6899109   c-2.9286804,0-5.2984009,2.369812-5.2984009,5.298111v42.3482819h-1.5155945c-2.3231812,0-4.3774109,1.5158997-5.0599976,3.735199   l-8.4971008,27.4956055c-61.6983032-42.2901001-81.2826996-128.3312836-82.7704926-135.2819977V115.5164032z    M232.0973053,207.9916992c12.0302887,32.7144012,35.9760895,80.1848145,79.5165863,108.6149902l-5.1210938,16.5691223h-74.3954926   V207.9916992z M206.901001,79.9514008c0-4.0251007,3.2749023-7.3003006,7.300293-7.3003006   c4.0254059,0,7.3003082,3.2751999,7.3003082,7.3003006v253.224411H206.901001V79.9514008z M196.3047943,96.5596008v50.1759949   h-35.6416016L196.3047943,96.5596008z M153.1363068,157.3318024h43.1684875v40.2834015h-71.7836914L153.1363068,157.3318024z    M116.9946976,208.2113953h79.3100967v34.0183105H92.8302002L116.9946976,208.2113953z M60.2941017,288.0342102   l25.0091972-35.208313h111.0014954v35.208313H60.2941017z M456.6690979,350.0429993   c0,49.244812-40.0610962,89.3059082-89.3008118,89.3059082H144.6383057c-49.244606,0-89.3057098-40.0610962-89.3057098-89.3059082   v-6.2709961h255.066391c2.3228149,0,4.3770142-1.5158997,5.0596008-3.7354126l16.8726196-54.5944824h124.3378906V350.0429993z    M456.6690979,274.8458862h-21.6470032v-37.0501862h21.6470032V274.8458862z"/><path d="M276.6030884,178.7619934h-12.6239929c-2.9286804,0-5.2983093,2.3693085-5.2983093,5.298111   c0,2.9281921,2.3696289,5.2977905,5.2983093,5.2977905h12.6239929c2.9283142,0,5.2984009-2.3695984,5.2984009-5.2977905   C281.9014893,181.1313019,279.5314026,178.7619934,276.6030884,178.7619934z"/></g></svg>